<?xml version="1.0" standalone="no"?>
<!DOCTYPE svg PUBLIC "-//W3C//DTD SVG 20010904//EN"
 "http://www.w3.org/TR/2001/REC-SVG-20010904/DTD/svg10.dtd">
<svg version="1.0" xmlns="http://www.w3.org/2000/svg"
 width="337.000000pt" height="338.000000pt" viewBox="0 0 337.000000 338.000000"
 preserveAspectRatio="xMidYMid meet">

<g transform="translate(0.000000,338.000000) scale(0.100000,-0.100000)"
fill="#000000" stroke="none">
<path d="M1530 3339 c-493 -43 -946 -312 -1222 -724 -187 -279 -288 -603 -288
-926 l0 -68 678 -3 c746 -4 730 -3 819 -67 58 -42 100 -131 114 -244 l12 -87
32 0 32 0 12 88 c14 112 56 201 114 243 87 63 85 63 710 67 l567 3 0 -48 c-2
-187 -105 -465 -247 -666 -78 -110 -256 -287 -373 -369 -317 -226 -715 -338
-1060 -299 -581 66 -1065 429 -1284 964 -13 31 -20 37 -45 37 -17 0 -31 -2
-31 -4 0 -3 14 -44 31 -93 365 -1042 1609 -1448 2516 -821 233 161 413 375
543 643 105 218 154 408 166 648 l7 136 -674 4 c-499 3 -686 7 -722 16 -126
33 -198 130 -219 294 l-11 87 -32 0 -32 0 -11 -87 c-21 -164 -93 -261 -219
-294 -35 -9 -204 -13 -612 -16 l-564 -4 6 84 c35 449 374 904 847 1138 263
130 560 188 825 160 571 -61 1048 -410 1275 -933 31 -71 36 -78 62 -78 26 0
28 2 22 28 -16 63 -70 200 -115 289 -264 518 -760 851 -1344 902 -133 12 -148
12 -285 0z"/>
</g>
</svg>
